<svg width="1175mm" height="467mm" viewBox="0 0 1175 467" xmlns="http://www.w3.org/2000/svg" version="1.1" preserveAspectRatio="xMidYMid meet"><g id="svgGroup" stroke-linecap="round" fill-rule="evenodd" font-size="9pt" stroke="#000" stroke-width="0.25mm" fill="none" style="stroke:#000;stroke-width:0.25mm;fill:none"><path d="M 0 367 L 0 385.905 L 3.4 385.905 L 3.4 406.635 L 0 406.635 L 0 427.365 L 3.4 427.365 L 3.4 448.095 L 0 448.095 L 0 467 L 20.025 467 L 20.025 463.6 L 40.755 463.6 L 40.755 467 L 61.485 467 L 61.485 463.6 L 82.215 463.6 L 82.215 467 L 102.945 467 L 102.945 463.6 L 123.675 463.6 L 123.675 467 L 144.405 467 L 144.405 463.6 L 165.135 463.6 L 165.135 467 L 185.865 467 L 185.865 463.6 L 206.595 463.6 L 206.595 467 L 227.325 467 L 227.325 463.6 L 248.055 463.6 L 248.055 467 L 268.785 467 L 268.785 463.6 L 289.515 463.6 L 289.515 467 L 310.245 467 L 310.245 463.6 L 330.975 463.6 L 330.975 467 L 351 467 L 351 448.095 L 347.6 448.095 L 347.6 427.365 L 351 427.365 L 351 406.635 L 347.6 406.635 L 347.6 385.905 L 351 385.905 L 351 367 L 0 367 Z" id="front_outsideCutPath" stroke="#FF0000" stroke-width="0.1" style="stroke:#FF0000;stroke-width:0.1" vector-effect="non-scaling-stroke"/><path d="M 357.4 367 L 357.4 385.905 L 354 385.905 L 354 406.635 L 357.4 406.635 L 357.4 427.365 L 354 427.365 L 354 448.095 L 357.4 448.095 L 357.4 467 L 390.565 467 L 390.565 463.6 L 411.295 463.6 L 411.295 467 L 432.025 467 L 432.025 463.6 L 452.755 463.6 L 452.755 467 L 473.485 467 L 473.485 463.6 L 494.215 463.6 L 494.215 467 L 514.945 467 L 514.945 463.6 L 535.675 463.6 L 535.675 467 L 556.405 467 L 556.405 463.6 L 577.135 463.6 L 577.135 467 L 597.865 467 L 597.865 463.6 L 618.595 463.6 L 618.595 467 L 639.325 467 L 639.325 463.6 L 660.055 463.6 L 660.055 467 L 680.785 467 L 680.785 463.6 L 701.515 463.6 L 701.515 467 L 722.245 467 L 722.245 463.6 L 742.975 463.6 L 742.975 467 L 763.705 467 L 763.705 463.6 L 784.435 463.6 L 784.435 467 L 805.165 467 L 817.6 467 L 817.6 448.095 L 821 448.095 L 821 427.365 L 817.6 427.365 L 817.6 406.635 L 821 406.635 L 821 385.905 L 817.6 385.905 L 817.6 367 L 357.4 367 Z" id="left_outsideCutPath" stroke="#FF0000" stroke-width="0.1" style="stroke:#FF0000;stroke-width:0.1" vector-effect="non-scaling-stroke"/><path d="M 0 264 L 0 282.905 L 3.4 282.905 L 3.4 303.635 L 0 303.635 L 0 324.365 L 3.4 324.365 L 3.4 345.095 L 0 345.095 L 0 364 L 20.025 364 L 20.025 360.6 L 40.755 360.6 L 40.755 364 L 61.485 364 L 61.485 360.6 L 82.215 360.6 L 82.215 364 L 102.945 364 L 102.945 360.6 L 123.675 360.6 L 123.675 364 L 144.405 364 L 144.405 360.6 L 165.135 360.6 L 165.135 364 L 185.865 364 L 185.865 360.6 L 206.595 360.6 L 206.595 364 L 227.325 364 L 227.325 360.6 L 248.055 360.6 L 248.055 364 L 268.785 364 L 268.785 360.6 L 289.515 360.6 L 289.515 364 L 310.245 364 L 310.245 360.6 L 330.975 360.6 L 330.975 364 L 351 364 L 351 345.095 L 347.6 345.095 L 347.6 324.365 L 351 324.365 L 351 303.635 L 347.6 303.635 L 347.6 282.905 L 351 282.905 L 351 264 L 0 264 Z" id="back_outsideCutPath" stroke="#FF0000" stroke-width="0.1" style="stroke:#FF0000;stroke-width:0.1" vector-effect="non-scaling-stroke"/><path d="M 357.4 264 L 357.4 282.905 L 354 282.905 L 354 303.635 L 357.4 303.635 L 357.4 324.365 L 354 324.365 L 354 345.095 L 357.4 345.095 L 357.4 364 L 390.565 364 L 390.565 360.6 L 411.295 360.6 L 411.295 364 L 432.025 364 L 432.025 360.6 L 452.755 360.6 L 452.755 364 L 473.485 364 L 473.485 360.6 L 494.215 360.6 L 494.215 364 L 514.945 364 L 514.945 360.6 L 535.675 360.6 L 535.675 364 L 556.405 364 L 556.405 360.6 L 577.135 360.6 L 577.135 364 L 597.865 364 L 597.865 360.6 L 618.595 360.6 L 618.595 364 L 639.325 364 L 639.325 360.6 L 660.055 360.6 L 660.055 364 L 680.785 364 L 680.785 360.6 L 701.515 360.6 L 701.515 364 L 722.245 364 L 722.245 360.6 L 742.975 360.6 L 742.975 364 L 763.705 364 L 763.705 360.6 L 784.435 360.6 L 784.435 364 L 805.165 364 L 817.6 364 L 817.6 345.095 L 821 345.095 L 821 324.365 L 817.6 324.365 L 817.6 303.635 L 821 303.635 L 821 282.905 L 817.6 282.905 L 817.6 264 L 357.4 264 Z" id="right_outsideCutPath" stroke="#FF0000" stroke-width="0.1" style="stroke:#FF0000;stroke-width:0.1" vector-effect="non-scaling-stroke"/><path d="M 827.4 3.4 L 827.4 36.565 L 824 36.565 L 824 57.295 L 827.4 57.295 L 827.4 78.025 L 824 78.025 L 824 98.755 L 827.4 98.755 L 827.4 119.485 L 824 119.485 L 824 140.215 L 827.4 140.215 L 827.4 160.945 L 824 160.945 L 824 181.675 L 827.4 181.675 L 827.4 202.405 L 824 202.405 L 824 223.135 L 827.4 223.135 L 827.4 243.865 L 824 243.865 L 824 264.595 L 827.4 264.595 L 827.4 285.325 L 824 285.325 L 824 306.055 L 827.4 306.055 L 827.4 326.785 L 824 326.785 L 824 347.515 L 827.4 347.515 L 827.4 368.245 L 824 368.245 L 824 388.975 L 827.4 388.975 L 827.4 409.705 L 824 409.705 L 824 430.435 L 827.4 430.435 L 827.4 451.165 L 827.4 463.6 L 844.025 463.6 L 844.025 467 L 864.755 467 L 864.755 463.6 L 885.485 463.6 L 885.485 467 L 906.215 467 L 906.215 463.6 L 926.945 463.6 L 926.945 467 L 947.675 467 L 947.675 463.6 L 968.405 463.6 L 968.405 467 L 989.135 467 L 989.135 463.6 L 1009.865 463.6 L 1009.865 467 L 1030.595 467 L 1030.595 463.6 L 1051.325 463.6 L 1051.325 467 L 1072.055 467 L 1072.055 463.6 L 1092.785 463.6 L 1092.785 467 L 1113.515 467 L 1113.515 463.6 L 1134.245 463.6 L 1134.245 467 L 1154.975 467 L 1154.975 463.6 L 1171.6 463.6 L 1171.6 430.435 L 1175 430.435 L 1175 409.705 L 1171.6 409.705 L 1171.6 388.975 L 1175 388.975 L 1175 368.245 L 1171.6 368.245 L 1171.6 347.515 L 1175 347.515 L 1175 326.785 L 1171.6 326.785 L 1171.6 306.055 L 1175 306.055 L 1175 285.325 L 1171.6 285.325 L 1171.6 264.595 L 1175 264.595 L 1175 243.865 L 1171.6 243.865 L 1171.6 223.135 L 1175 223.135 L 1175 202.405 L 1171.6 202.405 L 1171.6 181.675 L 1175 181.675 L 1175 160.945 L 1171.6 160.945 L 1171.6 140.215 L 1175 140.215 L 1175 119.485 L 1171.6 119.485 L 1171.6 98.755 L 1175 98.755 L 1175 78.025 L 1171.6 78.025 L 1171.6 57.295 L 1175 57.295 L 1175 36.565 L 1171.6 36.565 L 1171.6 15.835 L 1171.6 3.4 L 1154.975 3.4 L 1154.975 0 L 1134.245 0 L 1134.245 3.4 L 1113.515 3.4 L 1113.515 0 L 1092.785 0 L 1092.785 3.4 L 1072.055 3.4 L 1072.055 0 L 1051.325 0 L 1051.325 3.4 L 1030.595 3.4 L 1030.595 0 L 1009.865 0 L 1009.865 3.4 L 989.135 3.4 L 989.135 0 L 968.405 0 L 968.405 3.4 L 947.675 3.4 L 947.675 0 L 926.945 0 L 926.945 3.4 L 906.215 3.4 L 906.215 0 L 885.485 0 L 885.485 3.4 L 864.755 3.4 L 864.755 0 L 844.025 0 L 844.025 3.4 L 827.4 3.4 Z" id="bottom_outsideCutPath" stroke="#FF0000" stroke-width="0.1" style="stroke:#FF0000;stroke-width:0.1" vector-effect="non-scaling-stroke"/></g></svg>